<svg width="28" height="27" viewBox="0 0 28 27" fill="none" xmlns="http://www.w3.org/2000/svg">
<g clip-path="url(#clip0_302_931)">
<path d="M13.1857 4.68781L4.20044 1.05288V17.7981L13.1857 21.7598V4.68781ZM23.8046 0.971191L14.8194 4.68781V21.7598L23.8046 17.7164V0.971191Z" fill="#364356"/>
<path d="M26.255 2.11475C26.0384 2.11475 25.8306 2.20081 25.6774 2.35399C25.5243 2.50718 25.4382 2.71495 25.4382 2.93159V18.86L14.0024 24.0878L2.56666 18.86V2.93159C2.56666 2.71495 2.4806 2.50718 2.32742 2.35399C2.17423 2.20081 1.96646 2.11475 1.74982 2.11475C1.53318 2.11475 1.32542 2.20081 1.17223 2.35399C1.01904 2.50718 0.932983 2.71495 0.932983 2.93159L0.932983 19.3909C0.93558 19.5476 0.983163 19.7001 1.07006 19.8305C1.15696 19.9608 1.2795 20.0634 1.42309 20.1261L13.6757 25.6806L14.0024 25.7623L14.3292 25.6806L26.5818 20.1261C26.7254 20.0634 26.8479 19.9608 26.9348 19.8305C27.0217 19.7001 27.0693 19.5476 27.0719 19.3909V2.93159C27.0719 2.71495 26.9858 2.50718 26.8326 2.35399C26.6794 2.20081 26.4717 2.11475 26.255 2.11475Z" fill="#364356"/>
</g>
<defs>
<clipPath id="clip0_302_931">
<rect width="26.1389" height="26.1389" fill="white" transform="translate(0.932983 0.318115)"/>
</clipPath>
</defs>
</svg>
