<svg width="27" height="27" viewBox="0 0 27 27" fill="none" xmlns="http://www.w3.org/2000/svg">
<g clip-path="url(#clip0_302_915)">
<path d="M26.2026 23.3005L23.0802 20.1777C23.7942 19.1719 24.1041 17.9346 23.9487 16.711C23.7932 15.4874 23.1836 14.3669 22.2408 13.5716C21.298 12.7763 20.0908 12.3643 18.8585 12.4173C17.6262 12.4702 16.4588 12.9843 15.5877 13.8575C14.7166 14.7308 14.2054 15.8995 14.1555 17.1319C14.1056 18.3643 14.5206 19.5705 15.3182 20.5113C16.1158 21.4522 17.2379 22.059 18.4618 22.2114C19.6858 22.3639 20.9224 22.0508 21.9264 21.3344L25.048 24.4555C25.202 24.6043 25.4084 24.6867 25.6225 24.6848C25.8367 24.6829 26.0416 24.597 26.193 24.4456C26.3445 24.2941 26.4304 24.0893 26.4323 23.8751C26.4341 23.6609 26.3518 23.4546 26.203 23.3005H26.2026ZM15.8181 17.3482C15.8181 16.702 16.0097 16.0703 16.3687 15.533C16.7278 14.9956 17.2381 14.5769 17.8351 14.3296C18.4321 14.0823 19.0891 14.0176 19.7229 14.1436C20.3567 14.2697 20.9389 14.5809 21.3958 15.0378C21.8528 15.4948 22.164 16.077 22.29 16.7108C22.4161 17.3446 22.3514 18.0015 22.1041 18.5986C21.8568 19.1956 21.438 19.7059 20.9007 20.0649C20.3634 20.4239 19.7317 20.6156 19.0855 20.6156C18.2192 20.6146 17.3887 20.27 16.7762 19.6575C16.1636 19.045 15.8191 18.2145 15.8181 17.3482Z" fill="#364356"/>
<path d="M12.5507 17.3483C12.5487 16.2001 12.8497 15.0716 13.4235 14.077C13.9972 13.0824 14.8234 12.2569 15.8184 11.6839C16.8134 11.1109 17.9421 10.8107 19.0903 10.8136C20.2385 10.8166 21.3656 11.1226 22.3577 11.7007V8.35815H1.11987V20.6108H13.4321C12.8552 19.6203 12.5511 18.4946 12.5507 17.3483Z" fill="#364356"/>
<path d="M1.11987 2.6405V6.72471H22.3577V2.6405H1.11987ZM3.57039 5.49944C3.40884 5.49944 3.25091 5.45154 3.11658 5.36178C2.98225 5.27203 2.87756 5.14445 2.81573 4.9952C2.75391 4.84594 2.73773 4.6817 2.76925 4.52325C2.80077 4.36479 2.87856 4.21925 2.9928 4.10501C3.10704 3.99077 3.25259 3.91298 3.41104 3.88146C3.56949 3.84994 3.73373 3.86612 3.88299 3.92794C4.03224 3.98977 4.15982 4.09446 4.24957 4.22879C4.33933 4.36312 4.38723 4.52105 4.38723 4.6826C4.38723 4.89924 4.30118 5.10701 4.14799 5.2602C3.9948 5.41338 3.78703 5.49944 3.57039 5.49944ZM6.02092 5.49944C5.85936 5.49944 5.70143 5.45154 5.5671 5.36178C5.43278 5.27203 5.32808 5.14445 5.26625 4.9952C5.20443 4.84594 5.18825 4.6817 5.21977 4.52325C5.25129 4.36479 5.32909 4.21925 5.44332 4.10501C5.55756 3.99077 5.70311 3.91298 5.86156 3.88146C6.02001 3.84994 6.18425 3.86612 6.33351 3.92794C6.48277 3.98977 6.61034 4.09446 6.70009 4.22879C6.78985 4.36312 6.83776 4.52105 6.83776 4.6826C6.83776 4.89924 6.7517 5.10701 6.59851 5.2602C6.44532 5.41338 6.23756 5.49944 6.02092 5.49944ZM8.47144 5.49944C8.30988 5.49944 8.15195 5.45154 8.01762 5.36178C7.8833 5.27203 7.7786 5.14445 7.71677 4.9952C7.65495 4.84594 7.63877 4.6817 7.67029 4.52325C7.70181 4.36479 7.77961 4.21925 7.89384 4.10501C8.00808 3.99077 8.15363 3.91298 8.31208 3.88146C8.47053 3.84994 8.63477 3.86612 8.78403 3.92794C8.93329 3.98977 9.06086 4.09446 9.15062 4.22879C9.24037 4.36312 9.28828 4.52105 9.28828 4.6826C9.28828 4.89924 9.20222 5.10701 9.04903 5.2602C8.89584 5.41338 8.68808 5.49944 8.47144 5.49944Z" fill="#364356"/>
</g>
<defs>
<clipPath id="clip0_302_915">
<rect width="26.1389" height="26.1389" fill="white" transform="translate(0.711304 0.598633)"/>
</clipPath>
</defs>
</svg>
