<svg width="29" height="29" viewBox="0 0 29 29" fill="none" xmlns="http://www.w3.org/2000/svg">
<g clip-path="url(#clip0_2_5774)">
<g filter="url(#filter0_d_2_5774)">
<path d="M4.4916 22.1409V2.69483C4.4916 2.45659 4.39696 2.2281 4.22849 2.05964C4.06003 1.89117 3.83154 1.79653 3.59329 1.79653C3.35505 1.79653 3.12656 1.89117 2.9581 2.05964C2.78963 2.2281 2.69499 2.45659 2.69499 2.69483V22.1409C1.97126 22.3567 1.34937 22.8257 0.943055 23.4623C0.536737 24.0989 0.373134 24.8605 0.482164 25.6078C0.591194 26.3551 0.96557 27.0382 1.53684 27.5322C2.1081 28.0261 2.83808 28.298 3.59329 28.298C4.34851 28.298 5.07849 28.0261 5.64975 27.5322C6.22102 27.0382 6.59539 26.3551 6.70442 25.6078C6.81345 24.8605 6.64985 24.0989 6.24353 23.4623C5.83721 22.8257 5.21533 22.3567 4.4916 22.1409V22.1409ZM28.2967 3.59314C28.2969 3.00998 28.135 2.43824 27.829 1.94183C27.523 1.44542 27.0849 1.04389 26.5638 0.782143C26.0427 0.520392 25.4591 0.408729 24.8782 0.459636C24.2972 0.510543 23.7419 0.722013 23.2743 1.07041C22.8066 1.4188 22.4451 1.8904 22.2301 2.43247C22.015 2.97454 21.955 3.56573 22.0567 4.13995C22.1584 4.71417 22.4178 5.2488 22.8059 5.68406C23.194 6.11933 23.6955 6.43809 24.2543 6.60471V26.0508C24.2543 26.289 24.349 26.5175 24.5174 26.686C24.6859 26.8544 24.9144 26.9491 25.1526 26.9491C25.3909 26.9491 25.6193 26.8544 25.7878 26.686C25.9563 26.5175 26.0509 26.289 26.0509 26.0508V6.60471C26.6992 6.41069 27.2677 6.013 27.6722 5.47056C28.0767 4.92812 28.2957 4.2698 28.2967 3.59314V3.59314ZM15.2713 11.3612V2.69483C15.2713 2.45659 15.1766 2.2281 15.0082 2.05964C14.8397 1.89117 14.6112 1.79653 14.373 1.79653C14.1347 1.79653 13.9062 1.89117 13.7378 2.05964C13.5693 2.2281 13.4746 2.45659 13.4746 2.69483V11.3612C12.8259 11.5544 12.257 11.9519 11.8524 12.4945C11.4478 13.0372 11.2292 13.6959 11.2292 14.3728C11.2292 15.0497 11.4478 15.7084 11.8524 16.2511C12.257 16.7937 12.8259 17.1912 13.4746 17.3844V26.0508C13.4746 26.289 13.5693 26.5175 13.7378 26.686C13.9062 26.8544 14.1347 26.9491 14.373 26.9491C14.6112 26.9491 14.8397 26.8544 15.0082 26.686C15.1766 26.5175 15.2713 26.289 15.2713 26.0508V17.3844C15.92 17.1912 16.489 16.7937 16.8935 16.2511C17.2981 15.7084 17.5167 15.0497 17.5167 14.3728C17.5167 13.6959 17.2981 13.0372 16.8935 12.4945C16.489 11.9519 15.92 11.5544 15.2713 11.3612Z" fill="#364356"/>
</g>
</g>
<defs>
<filter id="filter0_d_2_5774" x="-2.55078" y="-2.55237" width="33.8474" height="33.8503" filterUnits="userSpaceOnUse" color-interpolation-filters="sRGB">
<feFlood flood-opacity="0" result="BackgroundImageFix"/>
<feColorMatrix in="SourceAlpha" type="matrix" values="0 0 0 0 0 0 0 0 0 0 0 0 0 0 0 0 0 0 127 0" result="hardAlpha"/>
<feOffset/>
<feGaussianBlur stdDeviation="1.5"/>
<feComposite in2="hardAlpha" operator="out"/>
<feColorMatrix type="matrix" values="0 0 0 0 0 0 0 0 0 0 0 0 0 0 0 0 0 0 0.25 0"/>
<feBlend mode="normal" in2="BackgroundImageFix" result="effect1_dropShadow_2_5774"/>
<feBlend mode="normal" in="SourceGraphic" in2="effect1_dropShadow_2_5774" result="shape"/>
</filter>
<clipPath id="clip0_2_5774">
<rect width="28.7458" height="28.7458" fill="white"/>
</clipPath>
</defs>
</svg>
