<svg width="27" height="27" viewBox="0 0 27 27" fill="none" xmlns="http://www.w3.org/2000/svg">
<g clip-path="url(#clip0_302_924)">
<path d="M25.1077 16.2458H24.2908V4.81006H3.05299V16.2458H2.23615C2.01951 16.2458 1.81175 16.3319 1.65856 16.4851C1.50537 16.6383 1.41931 16.846 1.41931 17.0627C1.41931 17.2793 1.50537 17.4871 1.65856 17.6403C1.81175 17.7934 2.01951 17.8795 2.23615 17.8795H11.834L6.52456 23.8833C6.37833 24.0458 6.30263 24.2597 6.31412 24.478C6.32561 24.6963 6.42335 24.901 6.58583 25.0473C6.74831 25.1935 6.96222 25.2692 7.18051 25.2577C7.39881 25.2462 7.60359 25.1485 7.74982 24.986L12.8551 19.2273V25.2311C12.8551 25.4477 12.9411 25.6555 13.0943 25.8087C13.2475 25.9619 13.4553 26.0479 13.6719 26.0479C13.8886 26.0479 14.0963 25.9619 14.2495 25.8087C14.4027 25.6555 14.4888 25.4477 14.4888 25.2311V19.2273L19.594 24.9452C19.7402 25.1077 19.945 25.2054 20.1633 25.2169C20.3816 25.2284 20.5955 25.1527 20.758 25.0064C20.9205 24.8602 21.0182 24.6554 21.0297 24.4371C21.0412 24.2188 20.9655 24.0049 20.8193 23.8424L15.5098 17.8795H25.1077C25.3243 17.8795 25.5321 17.7934 25.6853 17.6403C25.8385 17.4871 25.9245 17.2793 25.9245 17.0627C25.9245 16.846 25.8385 16.6383 25.6853 16.4851C25.5321 16.3319 25.3243 16.2458 25.1077 16.2458Z" fill="#364356"/>
<path d="M3.0531 0.726074H24.291V3.1766H3.0531V0.726074Z" fill="#364356"/>
</g>
<defs>
<clipPath id="clip0_302_924">
<rect width="26.1389" height="26.1389" fill="white" transform="translate(0.602539 0.318115)"/>
</clipPath>
</defs>
</svg>
